<svg width="560" height="160" viewBox="0 0 560 160" fill="none" xmlns="http://www.w3.org/2000/svg" role="img" aria-label="ENVOL logo">
  <defs>
    <linearGradient id="g" x1="20" y1="20" x2="120" y2="140" gradientUnits="userSpaceOnUse">
      <stop offset="0" stop-color="#1C7F4D"/>
      <stop offset="1" stop-color="#2AA564"/>
    </linearGradient>
    <filter id="s" x="-20%" y="-20%" width="140%" height="140%">
      <feDropShadow dx="0" dy="6" stdDeviation="8" flood-color="#123526" flood-opacity="0.12"/>
    </filter>
  </defs>
  <circle cx="70" cy="80" r="48" fill="url(#g)" filter="url(#s)"/>
  <circle cx="70" cy="58" r="14" fill="#FFFFFF"/>
  <path d="M58 79c0-6.627 5.373-12 12-12s12 5.373 12 12v22H58V79Z" fill="#FFFFFF"/>
  <path d="M53 83c0-3.314 2.686-6 6-6h22c3.314 0 6 2.686 6 6s-2.686 6-6 6H59c-3.314 0-6-2.686-6-6Z" fill="#FFFFFF" opacity="0.95"/>
  <circle cx="70" cy="80" r="34" stroke="#FFFFFF" stroke-width="4" opacity="0.55"/>
  <text x="155" y="100" fill="#1C7F4D" font-family="Arial, 'Malgun Gothic', sans-serif" font-size="44" font-weight="900" letter-spacing="1.2">ENVOL</text>
  <path d="M154 114h138" stroke="#D8E8DD" stroke-width="3"/>
  <circle cx="223" cy="114" r="5" fill="#2AA564"/>
</svg>
